<?xml version="1.0" encoding="UTF-8" standalone="no"?><!DOCTYPE svg PUBLIC "-//W3C//DTD SVG 1.1//EN" "http://www.w3.org/Graphics/SVG/1.1/DTD/svg11.dtd"><svg width="100%" height="100%" viewBox="0 0 800 800" version="1.1" xmlns="http://www.w3.org/2000/svg" xmlns:xlink="http://www.w3.org/1999/xlink" xml:space="preserve" xmlns:serif="http://www.serif.com/" style="fill-rule:evenodd;clip-rule:evenodd;stroke-linecap:round;stroke-linejoin:round;"><g><g><path d="M373.221,341.438c0,36.956 78.836,36.961 78.836,0c-0,-15.957 6.571,-23.518 20.53,-38.635c20.529,-22.678 47.631,-52.913 47.631,-125.985c-0,-37.795 -9.857,-76.431 -27.923,-105.829c-20.53,-34.435 -49.274,-53.752 -79.656,-53.752c-30.382,-0 -58.305,19.317 -79.656,53.752c-18.067,30.239 -27.923,68.874 -27.923,105.829c0,73.071 27.923,104.149 47.631,125.985c13.959,15.957 20.53,23.518 20.53,38.635Z" style="fill:#d7daff;fill-rule:nonzero;"/><path d="M396.473,342.832c0.145,-51.263 -71.125,-54.842 -71.125,-168.816c0.004,-69.408 39.422,-138.823 88.267,-138.823c48.846,0 88.264,69.413 88.264,139.68c-0,113.973 -71.126,106.257 -71.126,168.816c-0,38.56 -34.374,32.58 -34.28,-0.857Zm-24.847,0.864c-0,37.703 82.265,37.708 82.265,-0c-0,-16.281 6.856,-23.995 21.423,-39.418c21.422,-23.137 49.702,-53.984 49.702,-128.536c0,-38.56 -10.285,-77.978 -29.137,-107.971c-21.423,-35.133 -51.417,-54.842 -83.121,-54.842c-31.704,0 -60.841,19.709 -83.121,54.842c-18.852,30.85 -29.137,70.268 -29.137,107.971c0,74.551 29.137,106.258 49.703,128.536c14.566,16.28 21.423,23.995 21.423,39.418Z" style="fill:#091171;fill-rule:nonzero;"/><path d="M467.605,198.887c-1.714,17.995 -9.428,35.99 -17.994,48.846" style="fill:#091171;fill-rule:nonzero;stroke:#000;stroke-width:23.98px;"/></g><g><path d="M216.054,753.722c29.939,18.72 67.363,8.438 87.401,-23.608c13.804,-22.077 37.234,-68.843 59.773,-114.184l7.512,-15.113c23.429,-46.765 84.655,-157.069 104.25,-188.407c8.46,-13.53 18.04,-16.458 37.891,-21.875c29.43,-8.344 68.438,-19.611 107.179,-81.568c20.038,-32.047 32.164,-70.031 32.432,-104.535c0.85,-40.082 -13.281,-71.7 -39.041,-87.808c-25.761,-16.108 -59.678,-14.533 -96.038,3.345c-31.35,16.061 -60.19,43.594 -79.783,74.928c-38.74,61.956 -31.541,103.11 -26.407,132.073c3.375,20.931 4.938,30.826 -3.077,43.643c-19.592,31.334 -91.96,134.676 -123.743,176.219l-10.744,14.084c-30.898,40.118 -62.237,80.943 -76.041,103.02c-18.645,32.917 -11.507,71.063 18.435,89.785l0.001,0.001Z" style="fill:#d7daff;fill-rule:nonzero;"/><path d="M223.129,742.698c-20.345,-12.721 -23.7,-38.063 -10.979,-58.408c14.993,-23.978 54.881,-74.836 87.861,-117.888c32.981,-43.046 106.666,-149.58 127.112,-182.28c32.711,-52.313 -31.232,-84.208 29.194,-180.846c36.802,-58.848 107.026,-96.806 148.441,-70.909c41.416,25.896 38.038,105.648 0.784,165.228c-60.425,96.636 -116.641,52.385 -149.808,105.428c-20.444,32.695 -82.779,145.319 -107.043,193.818c-23.808,47.775 -52.796,105.451 -68.243,130.155c-12.721,20.345 -36.978,28.422 -57.319,15.702m-12.721,20.345c31.241,19.535 69.941,9.369 90.385,-23.326c14.084,-22.525 37.89,-70.297 60.789,-116.617l7.632,-15.44c23.807,-47.773 86.142,-160.391 106.134,-192.364c8.632,-13.804 18.535,-16.709 39.063,-22.064c30.431,-8.26 70.763,-19.422 110.288,-82.633c20.444,-32.695 32.622,-71.57 32.539,-106.996c0.462,-41.147 -14.521,-73.759 -41.403,-90.568c-26.881,-16.808 -62.035,-15.545 -99.552,2.431c-32.341,16.163 -61.96,44.132 -81.949,76.101c-39.525,63.211 -31.629,105.542 -26.003,135.335c3.719,21.526 5.443,31.703 -2.734,44.78c-19.989,31.968 -93.952,137.321 -126.476,179.644l-10.994,14.349c-31.62,40.87 -63.691,82.462 -77.775,104.985c-18.99,33.604 -11.19,72.846 20.055,92.383l0.001,0Z" style="fill:#091171;fill-rule:nonzero;"/></g><g><path d="M610.493,753.078c29.949,-18.705 37.11,-56.85 17.088,-88.906c-13.793,-22.085 -45.558,-63.641 -76.434,-103.772l-10.291,-13.377c-31.765,-41.556 -104.075,-144.933 -123.654,-176.281c-8.453,-13.534 -6.886,-23.428 -3.054,-43.644c5.399,-30.111 12.368,-70.111 -26.341,-132.087c-20.021,-32.057 -48.848,-59.605 -79.744,-74.969c-35.655,-18.331 -70.268,-19.488 -96.036,-3.394c-25.769,16.095 -39.219,47.271 -39.087,87.788c0.696,35.218 12.803,73.208 32.379,104.552c38.709,61.976 78.855,73.543 107.138,81.623c20.293,6.14 29.871,9.072 37.88,21.894c19.576,31.343 80.745,141.684 104.154,188.46l7.95,15.829c22.517,45.356 45.477,91.418 59.27,113.502c21.415,31.186 58.83,41.489 88.782,22.782l0,-0Z" style="fill:#d7daff;fill-rule:nonzero;"/><path d="M603.686,741.887c-20.351,12.711 -44.6,4.619 -57.311,-15.732c-14.981,-23.986 -43.211,-82.129 -67.453,-130.642c-24.235,-48.511 -87.696,-161.435 -108.126,-194.144c-32.684,-52.33 -89.377,-8.836 -149.754,-105.505c-36.765,-58.871 -40.104,-138.627 1.325,-164.503c41.429,-25.875 111.632,12.116 148.855,71.714c60.376,96.667 -4.037,127.802 29.103,180.861c20.427,32.706 94.336,138.097 127.293,181.163c32.507,42.339 71.642,93.673 87.077,118.385c12.711,20.352 9.339,45.694 -11.009,58.403m12.711,20.351c31.252,-19.519 39.076,-58.759 18.649,-91.465c-14.073,-22.531 -46.578,-64.868 -78.176,-105.751l-10.532,-13.628c-32.506,-42.336 -106.409,-147.726 -126.385,-179.709c-8.624,-13.808 -6.895,-23.983 -2.711,-44.781c5.913,-30.973 13.558,-72.116 -25.935,-135.348c-20.427,-32.706 -50.031,-60.69 -81.909,-76.142c-36.782,-18.45 -72.662,-19.277 -99.552,-2.482c-26.89,16.795 -41.162,48.946 -41.448,90.547c0.353,36.153 12.511,75.034 32.484,107.012c39.492,63.231 81.002,74.688 110.246,82.689c20.979,6.093 30.881,9.003 39.051,22.084c19.973,31.979 82.251,144.634 106.037,192.418l8.079,16.171c22.876,46.334 46.203,93.39 60.275,115.921c21.881,31.797 60.572,41.985 91.827,22.464l0,0Z" style="fill:#091171;fill-rule:nonzero;"/></g></g></svg>